<?xml version="1.0" encoding="utf-8"?>
<!-- Generator: Adobe Illustrator 16.0.0, SVG Export Plug-In . SVG Version: 6.00 Build 0)  -->
<!DOCTYPE svg PUBLIC "-//W3C//DTD SVG 1.1//EN" "http://www.w3.org/Graphics/SVG/1.1/DTD/svg11.dtd">
<svg version="1.1" id="Layer_1" xmlns="http://www.w3.org/2000/svg" xmlns:xlink="http://www.w3.org/1999/xlink" x="0px" y="0px"
	 width="148.152px" height="69.618px" viewBox="0 0 148.152 69.618" enable-background="new 0 0 148.152 69.618"
	 xml:space="preserve">
<linearGradient id="SVGID_1_" gradientUnits="userSpaceOnUse" x1="4.882813e-004" y1="34.8091" x2="148.1519" y2="34.8091">
	<stop  offset="0" style="stop-color:#FFFFFF;stop-opacity:0"/>
	<stop  offset="0.002" style="stop-color:#FAFDFE;stop-opacity:0.0076"/>
	<stop  offset="0.0228" style="stop-color:#C6E9F3;stop-opacity:0.0862"/>
	<stop  offset="0.0451" style="stop-color:#97D7E9;stop-opacity:0.1703"/>
	<stop  offset="0.0683" style="stop-color:#6EC7E0;stop-opacity:0.2577"/>
	<stop  offset="0.0925" style="stop-color:#4CBAD9;stop-opacity:0.3493"/>
	<stop  offset="0.1182" style="stop-color:#30B0D3;stop-opacity:0.4464"/>
	<stop  offset="0.1458" style="stop-color:#1BA7CF;stop-opacity:0.5507"/>
	<stop  offset="0.1763" style="stop-color:#0CA1CB;stop-opacity:0.6658"/>
	<stop  offset="0.2119" style="stop-color:#039ECA;stop-opacity:0.8002"/>
	<stop  offset="0.2649" style="stop-color:#009DC9"/>
	<stop  offset="0.6243" style="stop-color:#853188"/>
	<stop  offset="1" style="stop-color:#F4A47E"/>
</linearGradient>
<path fill="url(#SVGID_1_)" d="M141.34,55.318c-8.012-0.766-10.564-4.635-13.264-8.733c-3.564-5.401-7.246-10.988-23.107-6.491
	l0.016,0.071c-5.26,0.769-8.145,7.36-10.941,13.748c-0.537,1.232-1.082,2.471-1.641,3.663c-0.957-1.726-1.928-3.813-2.901-6.159
	c-2.351-5.668-4.702-12.778-7.003-19.743c-2.263-6.842-4.238-12.681-6.085-17.377C73.394,6.399,70.86,1.812,68.049,1.08
	c-0.623-0.203-8.955-2.801-15.148,0.875c-3.953,2.14-7.121,9.97-11.498,20.796c-2.401,5.938-5.096,12.588-8.263,19.019
	c-2.858-4.28-5.608-8.128-8.962-8.128c-2.591,0-5.272,2.788-8.985,6.65C11.067,44.584,5.928,49.927,0,52.035l0.969,2.725
	c6.568-2.339,11.969-7.952,16.309-12.465c2.723-2.834,5.541-5.765,6.9-5.765c2.006,0,4.813,4.224,7.072,7.616
	c0.999,1.499,1.979,2.968,2.971,4.261c0.603,0.812,1.234,1.562,1.902,2.206c1.285,1.274,2.619,2.102,4.057,2.186
	c0.24,0.034,0.482,0.05,0.73,0.05c6.43,0,11.07-13.188,15.984-27.147c1.171-3.329,2.498-7.104,3.863-10.565
	c2.057,5.263,4.182,11.823,6.41,18.702c6.83,21.097,11.396,33.993,17.014,34.843l-0.018,0.14c2.76,0.548,5.188,0.796,7.336,0.796
	c12.125,0,15.315-7.931,18.181-15.053c1.09-2.708,2.136-5.282,3.603-7.368c0.814,0.885,1.635,1.855,2.483,2.861
	c3.64,4.307,7.767,9.19,14.059,9.818c0.065,0.008,0.606,0.071,1.556,0.071c1.947,0,5.601-0.267,10.275-1.818l6.495-2.158
	L141.34,55.318z M54.167,24.743c-3.745,10.642-8.874,25.218-13.257,25.218c-1.01,0-2.002-0.636-2.957-1.6
	c-0.524-0.554-1.066-1.217-1.608-1.939c-0.452-0.622-0.893-1.285-1.317-1.95c3.525-6.965,6.457-14.215,9.054-20.638
	c3.847-9.51,7.169-17.724,10.211-19.346c0.021-0.011,0.041-0.022,0.061-0.034c2.968-1.773,6.739-1.719,9.421-1.35
	c-0.048,0.055-0.096,0.12-0.145,0.177c-1.063,1.186-2.059,2.806-3.027,4.917C58.622,12.246,56.586,17.866,54.167,24.743z
	 M69.918,32.948c-2.629-8.119-5.116-15.801-7.551-21.527c0.287-0.727,0.573-1.397,0.859-2.019c0.518-1.067,1.027-2.024,1.526-2.828
	c0.827-1.269,1.659-2.127,2.51-2.585c1.934,1.09,4.163,5.543,6.407,11.225c1.83,4.749,3.721,10.432,5.7,16.383
	c2.38,7.165,4.812,14.474,7.249,20.404c0.021,0.051,0.041,0.101,0.063,0.153c0.191,0.464,0.385,0.922,0.573,1.367
	c0.088,0.206,0.177,0.403,0.265,0.604c0.092,0.218,0.191,0.433,0.285,0.646c0.16,0.355,0.319,0.702,0.477,1.042
	c0.074,0.162,0.148,0.319,0.225,0.474c0.155,0.328,0.311,0.651,0.469,0.961c0.1,0.204,0.201,0.403,0.304,0.601
	c0.104,0.206,0.21,0.407,0.317,0.604c0.152,0.29,0.309,0.569,0.461,0.84c0.062,0.105,0.121,0.214,0.18,0.315
	c0.195,0.335,0.391,0.655,0.583,0.961c0.013,0.017,0.022,0.038,0.034,0.054c-1.197,2.129-2.494,3.858-3.98,4.728
	c-0.748,0.418-1.49,0.58-2.238,0.479C80.383,65.269,74.334,46.589,69.918,32.948z M106.999,53.485
	c-2.851,7.089-5.557,13.832-17.052,13.194c0.113-0.105,0.225-0.219,0.335-0.332c0.014-0.013,0.025-0.025,0.041-0.038
	c0.084-0.086,0.17-0.174,0.254-0.265c1.629-1.692,2.736-3.737,3.279-4.744l0.424-0.783l-0.053-0.073
	c0.863-1.713,1.669-3.552,2.467-5.374c2.599-5.943,5.287-12.089,9.324-12.089c2.334,0,3.645,0.894,5.143,2.206
	C109.354,47.63,108.16,50.601,106.999,53.485z M130.145,57.003c-5.158-0.516-8.723-4.733-12.17-8.813
	c-0.928-1.098-1.865-2.2-2.838-3.231l0.047-0.052l-0.761-0.682c-0.9-0.898-1.839-1.713-2.829-2.383
	c-0.055-0.038-0.109-0.075-0.164-0.113c-0.051-0.034-0.102-0.074-0.151-0.105c9.128-1.421,11.497,2.175,14.384,6.552
	c2.091,3.167,4.383,6.646,9.25,8.602C131.971,57.201,130.189,57.008,130.145,57.003z"/>
</svg>
